<svg xmlns="http://www.w3.org/2000/svg" viewBox="0 0 32 32" width="32" height="32">
  <rect width="32" height="32" rx="6" fill="#f97316"/>
  <path d="M16 8a4 4 0 0 0-4.5 3.95 5 5 0 0 0-2.3 4.6 4.5 4.5 0 0 0 .8 5.2A4.5 4.5 0 0 0 16 24a4.5 4.5 0 0 0 6-2.25 4.5 4.5 0 0 0 .8-5.2 5 5 0 0 0-2.3-4.6A4 4 0 0 0 16 8z" fill="none" stroke="white" stroke-width="1.5" stroke-linecap="round"/>
  <path d="M16 8a4 4 0 0 1 4.5 3.95M16 8a4 4 0 0 0-4.5 3.95" fill="none" stroke="white" stroke-width="1.2" stroke-linecap="round" opacity="0.6"/>
  <path d="M16 12v6M14 16h4" stroke="white" stroke-width="1.5" stroke-linecap="round"/>
</svg>
